<svg xmlns="http://www.w3.org/2000/svg" width="640" height="320" viewBox="0 0 640 320">
  <defs>
    <linearGradient id="bg" x1="0" y1="0" x2="1" y2="1">
      <stop offset="0%" stop-color="#f5f9ff"/>
      <stop offset="100%" stop-color="#f3f8ef"/>
    </linearGradient>
    <linearGradient id="detect" x1="0" y1="0" x2="1" y2="1">
      <stop offset="0%" stop-color="#dcecff"/>
      <stop offset="100%" stop-color="#c9dcf5"/>
    </linearGradient>
    <linearGradient id="resolve" x1="0" y1="0" x2="1" y2="1">
      <stop offset="0%" stop-color="#d9f2df"/>
      <stop offset="100%" stop-color="#bfe5cb"/>
    </linearGradient>
    <filter id="shadow" x="-20%" y="-25%" width="140%" height="160%">
      <feDropShadow dx="0" dy="5" stdDeviation="5" flood-color="#557080" flood-opacity="0.18"/>
    </filter>
    <filter id="smallShadow" x="-30%" y="-35%" width="160%" height="170%">
      <feDropShadow dx="0" dy="3" stdDeviation="3" flood-color="#557080" flood-opacity="0.16"/>
    </filter>
  </defs>

  <rect width="640" height="320" fill="url(#bg)"/>
  <circle cx="49" cy="40" r="75" fill="#dbeeff" opacity="0.42"/>
  <circle cx="602" cy="274" r="104" fill="#d9f1dc" opacity="0.48"/>

  <text x="320" y="28" text-anchor="middle" font-family="Segoe UI, Tahoma, sans-serif" font-size="12" font-weight="700" fill="#385167">ÇARPIŞMA TESPİTİ AKIŞI</text>

  <path d="M185 121 L224 121" fill="none" stroke="#7d9caf" stroke-width="2.5" stroke-linecap="round"/>
  <polygon points="224,121 216,116 216,126" fill="#7d9caf"/>
  <path d="M416 121 L455 121" fill="none" stroke="#7d9caf" stroke-width="2.5" stroke-linecap="round"/>
  <polygon points="455,121 447,116 447,126" fill="#7d9caf"/>

  <g filter="url(#shadow)">
    <rect x="30" y="67" width="155" height="108" rx="19" fill="#fffdf8"/>
    <rect x="30" y="67" width="155" height="31" rx="19" fill="#eadfca"/>
    <rect x="30" y="82" width="155" height="16" fill="#eadfca"/>
  </g>
  <text x="107" y="88" text-anchor="middle" font-family="Segoe UI, Tahoma, sans-serif" font-size="12" font-weight="700" fill="#625240">NESNE TEMSİLİ</text>

  <rect x="51" y="113" width="27" height="27" rx="4" fill="#90bce2" stroke="#5387b2" stroke-width="2"/>
  <rect x="97" y="126" width="38" height="28" rx="4" fill="#efb5a9" stroke="#c77c71" stroke-width="2"/>
  <path d="M54 151 H162" stroke="#a9b9ae" stroke-width="2"/>
  <path d="M54 160 H145" stroke="#d0d9d0" stroke-width="2"/>
  <text x="107" y="166" text-anchor="middle" font-family="Segoe UI, Tahoma, sans-serif" font-size="12" fill="#64746d">Izgara ve AABB</text>

  <g filter="url(#shadow)">
    <rect x="224" y="58" width="192" height="126" rx="22" fill="url(#detect)"/>
  </g>
  <circle cx="320" cy="113" r="39" fill="#f7fbff" opacity="0.72"/>
  <rect x="274" y="89" width="49" height="41" rx="6" fill="#8ebce4" opacity="0.88"/>
  <rect x="308" y="105" width="51" height="39" rx="6" fill="#edaaa0" opacity="0.87"/>
  <path d="M308 105 H323 V130 H308 Z" fill="#d493cf" opacity="0.76"/>
  <text x="320" y="159" text-anchor="middle" font-family="Segoe UI, Tahoma, sans-serif" font-size="12" font-weight="700" fill="#36536a">ALGILAMA</text>
  <text x="320" y="175" text-anchor="middle" font-family="Segoe UI, Tahoma, sans-serif" font-size="12" fill="#49677a">Temas var mı?</text>

  <g filter="url(#shadow)">
    <rect x="455" y="67" width="155" height="108" rx="19" fill="url(#resolve)"/>
    <rect x="455" y="67" width="155" height="31" rx="19" fill="#c8e7d0"/>
    <rect x="455" y="82" width="155" height="16" fill="#c8e7d0"/>
  </g>
  <text x="532" y="88" text-anchor="middle" font-family="Segoe UI, Tahoma, sans-serif" font-size="12" font-weight="700" fill="#3c6650">ÇÖZÜMLEME</text>
  <rect x="483" y="116" width="32" height="31" rx="5" fill="#92bde4" stroke="#5687ae" stroke-width="2"/>
  <rect x="533" y="116" width="40" height="31" rx="5" fill="#eeb2a9" stroke="#c77e73" stroke-width="2"/>
  <path d="M525 132 H516" stroke="#4b9b6e" stroke-width="3" stroke-linecap="round"/>
  <polygon points="516,132 523,127 523,137" fill="#4b9b6e"/>
  <text x="532" y="166" text-anchor="middle" font-family="Segoe UI, Tahoma, sans-serif" font-size="12" fill="#527363">En az geri itme</text>

  <path d="M320 185 L320 217" fill="none" stroke="#90a8a2" stroke-width="2.5" stroke-linecap="round"/>
  <polygon points="320,217 315,209 325,209" fill="#90a8a2"/>

  <g filter="url(#smallShadow)">
    <rect x="107" y="223" width="426" height="71" rx="18" fill="#fffefa"/>
  </g>

  <g>
    <circle cx="141" cy="258" r="18" fill="#f6d7ae"/>
    <path d="M133 258 L139 264 L150 251" fill="none" stroke="#a66839" stroke-width="3" stroke-linecap="round" stroke-linejoin="round"/>
    <text x="180" y="252" font-family="Segoe UI, Tahoma, sans-serif" font-size="12" font-weight="700" fill="#5b5143">Önleyici kontrol</text>
    <text x="180" y="270" font-family="Segoe UI, Tahoma, sans-serif" font-size="12" fill="#6b746f">Hedef hücre doluysa hareketi reddet</text>
  </g>

  <path d="M309 238 V280" stroke="#d5ddd6" stroke-width="1.5"/>

  <g>
    <circle cx="345" cy="258" r="18" fill="#e6cef0"/>
    <path d="M336 258 H354 M345 249 V267" stroke="#8d609e" stroke-width="2.5" stroke-linecap="round"/>
    <text x="384" y="252" font-family="Segoe UI, Tahoma, sans-serif" font-size="12" font-weight="700" fill="#5b4e61">Sürekli test</text>
    <text x="384" y="270" font-family="Segoe UI, Tahoma, sans-serif" font-size="12" fill="#6b746f">Hızlı harekette zaman adımı</text>
  </g>

  <path d="M84 204 C143 190, 184 199, 223 218" fill="none" stroke="#b8c7bf" stroke-width="1.5" stroke-dasharray="4 5"/>
  <path d="M556 204 C500 190, 454 200, 417 218" fill="none" stroke="#b8c7bf" stroke-width="1.5" stroke-dasharray="4 5"/>
</svg>