<svg xmlns="http://www.w3.org/2000/svg" width="640" height="320" viewBox="0 0 640 320">
  <defs>
    <linearGradient id="bg" x1="0" y1="0" x2="1" y2="1">
      <stop offset="0%" stop-color="#f5f9ff"/>
      <stop offset="100%" stop-color="#f3f8ef"/>
    </linearGradient>
    <linearGradient id="core" x1="0" y1="0" x2="0" y2="1">
      <stop offset="0%" stop-color="#e7edff"/>
      <stop offset="100%" stop-color="#d9f1ed"/>
    </linearGradient>
    <filter id="shadow" x="-20%" y="-20%" width="140%" height="150%">
      <feDropShadow dx="0" dy="5" stdDeviation="5" flood-color="#69829a" flood-opacity="0.20"/>
    </filter>
    <filter id="smallShadow" x="-20%" y="-20%" width="140%" height="150%">
      <feDropShadow dx="0" dy="3" stdDeviation="3" flood-color="#69829a" flood-opacity="0.16"/>
    </filter>
  </defs>

  <rect width="640" height="320" fill="url(#bg)"/>
  <circle cx="77" cy="51" r="54" fill="#dcecf8" opacity="0.52"/>
  <circle cx="586" cy="271" r="76" fill="#dff2dc" opacity="0.48"/>
  <circle cx="566" cy="45" r="30" fill="#f7ebd6" opacity="0.62"/>

  <text x="320" y="28" text-anchor="middle" font-family="Segoe UI, Tahoma, sans-serif" font-size="12" font-weight="700" fill="#38546b">ÇOK YAZARLI BLOG MİMARİSİ</text>

  <path d="M208 150 L151 113" fill="none" stroke="#90a9ba" stroke-width="2"/>
  <polygon points="151,113 160,114 155,121" fill="#90a9ba"/>
  <path d="M432 150 L489 113" fill="none" stroke="#90a9ba" stroke-width="2"/>
  <polygon points="489,113 480,114 485,121" fill="#90a9ba"/>
  <path d="M228 184 L161 233" fill="none" stroke="#90a9ba" stroke-width="2"/>
  <polygon points="161,233 165,224 171,232" fill="#90a9ba"/>
  <path d="M412 184 L479 233" fill="none" stroke="#90a9ba" stroke-width="2"/>
  <polygon points="479,233 469,232 475,224" fill="#90a9ba"/>

  <rect x="208" y="102" width="224" height="98" rx="22" fill="url(#core)" stroke="#bed4dc" stroke-width="1.2" filter="url(#shadow)"/>
  <circle cx="250" cy="142" r="22" fill="#92b6e8"/>
  <path d="M241 142 C241 136 245 132 250 132 C255 132 259 136 259 142 C259 147 255 151 250 151 C245 151 241 147 241 142Z" fill="#ffffff" opacity="0.95"/>
  <path d="M238 158 C240 152 245 149 250 149 C255 149 260 152 262 158" fill="none" stroke="#ffffff" stroke-width="3" stroke-linecap="round"/>
  <text x="278" y="133" font-family="Segoe UI, Tahoma, sans-serif" font-size="12" font-weight="700" fill="#35536b">Yayın Ekibi</text>
  <text x="278" y="151" font-family="Segoe UI, Tahoma, sans-serif" font-size="12" fill="#557083">Kullanıcı × Rol</text>
  <text x="278" y="169" font-family="Segoe UI, Tahoma, sans-serif" font-size="12" fill="#557083">Kaynak × İşlem</text>
  <rect x="278" y="178" width="106" height="9" rx="4.5" fill="#bdd8d3"/>
  <rect x="278" y="178" width="67" height="9" rx="4.5" fill="#6daea7"/>

  <rect x="39" y="53" width="142" height="70" rx="17" fill="#fff8ea" stroke="#ead7aa" stroke-width="1.2" filter="url(#smallShadow)"/>
  <circle cx="66" cy="79" r="14" fill="#efbe61"/>
  <path d="M61 80 L65 84 L72 75" fill="none" stroke="#ffffff" stroke-width="2.5" stroke-linecap="round" stroke-linejoin="round"/>
  <text x="89" y="77" font-family="Segoe UI, Tahoma, sans-serif" font-size="12" font-weight="700" fill="#75572e">Kolay Kurulum</text>
  <text x="89" y="96" font-family="Segoe UI, Tahoma, sans-serif" font-size="12" fill="#8a704b">Hız ve pratiklik</text>

  <rect x="459" y="53" width="142" height="70" rx="17" fill="#f4edff" stroke="#d9c7ef" stroke-width="1.2" filter="url(#smallShadow)"/>
  <circle cx="486" cy="79" r="14" fill="#ac8ada"/>
  <path d="M480 79 L486 73 L492 79 L486 85 Z" fill="#ffffff"/>
  <text x="509" y="77" font-family="Segoe UI, Tahoma, sans-serif" font-size="12" font-weight="700" fill="#624a86">Rol Esnekliği</text>
  <text x="509" y="96" font-family="Segoe UI, Tahoma, sans-serif" font-size="12" fill="#79648f">İzin ve iş akışı</text>

  <rect x="39" y="222" width="142" height="70" rx="17" fill="#eaf7f4" stroke="#bce0d7" stroke-width="1.2" filter="url(#smallShadow)"/>
  <circle cx="66" cy="248" r="14" fill="#70b9a9"/>
  <path d="M59 250 L64 245 L68 249 L74 242" fill="none" stroke="#ffffff" stroke-width="2.4" stroke-linecap="round" stroke-linejoin="round"/>
  <text x="89" y="246" font-family="Segoe UI, Tahoma, sans-serif" font-size="12" font-weight="700" fill="#376b64">Site İzolasyonu</text>
  <text x="89" y="265" font-family="Segoe UI, Tahoma, sans-serif" font-size="12" fill="#557c77">Bağımsız alanlar</text>

  <rect x="459" y="222" width="142" height="70" rx="17" fill="#fff0ef" stroke="#edc7c3" stroke-width="1.2" filter="url(#smallShadow)"/>
  <circle cx="486" cy="248" r="14" fill="#df8e86"/>
  <path d="M479 252 L484 247 L488 250 L494 242" fill="none" stroke="#ffffff" stroke-width="2.4" stroke-linecap="round" stroke-linejoin="round"/>
  <text x="509" y="246" font-family="Segoe UI, Tahoma, sans-serif" font-size="12" font-weight="700" fill="#814c49">Toplam Maliyet</text>
  <text x="509" y="265" font-family="Segoe UI, Tahoma, sans-serif" font-size="12" fill="#936763">Bakım ve ölçekleme</text>

  <path d="M183 117 C194 117 196 125 204 128" fill="none" stroke="#c4d3dc" stroke-width="1.2"/>
  <path d="M457 117 C446 117 444 125 436 128" fill="none" stroke="#c4d3dc" stroke-width="1.2"/>
  <path d="M183 230 C197 230 202 211 215 201" fill="none" stroke="#c4d3dc" stroke-width="1.2"/>
  <path d="M457 230 C443 230 438 211 425 201" fill="none" stroke="#c4d3dc" stroke-width="1.2"/>

  <rect x="205" y="237" width="230" height="48" rx="15" fill="#ffffff" stroke="#d5e1e4" filter="url(#smallShadow)"/>
  <rect x="217" y="248" width="56" height="25" rx="9" fill="#dceaff"/>
  <text x="245" y="265" text-anchor="middle" font-family="Segoe UI, Tahoma, sans-serif" font-size="12" font-weight="700" fill="#436ea5">WordPress</text>
  <rect x="283" y="248" width="56" height="25" rx="9" fill="#f1e6ff"/>
  <text x="311" y="265" text-anchor="middle" font-family="Segoe UI, Tahoma, sans-serif" font-size="12" font-weight="700" fill="#76539c">Ghost</text>
  <rect x="349" y="248" width="74" height="25" rx="9" fill="#dff3ea"/>
  <text x="386" y="265" text-anchor="middle" font-family="Segoe UI, Tahoma, sans-serif" font-size="12" font-weight="700" fill="#40816e">Drupal</text>
</svg>