<svg xmlns="http://www.w3.org/2000/svg" width="640" height="320" viewBox="0 0 640 320">
  <defs>
    <linearGradient id="bg" x1="0" y1="0" x2="1" y2="1">
      <stop offset="0" stop-color="#f5f9ff"/>
      <stop offset="1" stop-color="#f3f8ef"/>
    </linearGradient>
    <linearGradient id="mcu" x1="0" y1="0" x2="1" y2="1">
      <stop offset="0" stop-color="#dbeafe"/>
      <stop offset="1" stop-color="#c7e5f5"/>
    </linearGradient>
    <linearGradient id="pwm" x1="0" y1="0" x2="1" y2="1">
      <stop offset="0" stop-color="#ede9fe"/>
      <stop offset="1" stop-color="#ddd6fe"/>
    </linearGradient>
    <linearGradient id="led" x1="0" y1="0" x2="1" y2="1">
      <stop offset="0" stop-color="#fff4b8"/>
      <stop offset="1" stop-color="#fde68a"/>
    </linearGradient>
    <linearGradient id="motor" x1="0" y1="0" x2="1" y2="1">
      <stop offset="0" stop-color="#d1fae5"/>
      <stop offset="1" stop-color="#a7e7d0"/>
    </linearGradient>
    <filter id="shadow" x="-20%" y="-20%" width="140%" height="150%">
      <feDropShadow dx="0" dy="5" stdDeviation="5" flood-color="#6b8295" flood-opacity="0.2"/>
    </filter>
    <filter id="glow" x="-60%" y="-60%" width="220%" height="220%">
      <feDropShadow dx="0" dy="0" stdDeviation="6" flood-color="#fbbf24" flood-opacity="0.65"/>
    </filter>
  </defs>

  <rect width="640" height="320" fill="url(#bg)"/>
  <circle cx="570" cy="46" r="88" fill="#d8f3e7" opacity="0.42"/>
  <circle cx="82" cy="280" r="105" fill="#dcecff" opacity="0.48"/>

  <text x="34" y="34" font-family="Segoe UI, Tahoma, sans-serif" font-size="12" font-weight="700" fill="#38526a">PWM İLE ENERJİ KONTROLÜ</text>
  <text x="34" y="52" font-family="Segoe UI, Tahoma, sans-serif" font-size="12" fill="#6b7f91">Dijital darbe • Ortalama etki</text>

  <g filter="url(#shadow)">
    <rect x="34" y="88" width="132" height="142" rx="18" fill="url(#mcu)" stroke="#a8cbe5"/>
  </g>
  <rect x="48" y="105" width="45" height="31" rx="8" fill="#f8fcff" stroke="#8eb6d4"/>
  <rect x="101" y="105" width="48" height="11" rx="5" fill="#8cbcdc"/>
  <rect x="101" y="124" width="35" height="8" rx="4" fill="#b5d4e9"/>
  <path d="M61 154 h78 M61 170 h78 M61 186 h78 M61 202 h52" fill="none" stroke="#80aecb" stroke-width="3" stroke-linecap="round"/>
  <circle cx="69" cy="154" r="4" fill="#69a7ca"/>
  <circle cx="69" cy="170" r="4" fill="#69a7ca"/>
  <circle cx="69" cy="186" r="4" fill="#69a7ca"/>
  <circle cx="69" cy="202" r="4" fill="#69a7ca"/>
  <text x="100" y="215" text-anchor="middle" font-family="Segoe UI, Tahoma, sans-serif" font-size="12" font-weight="700" fill="#315772">Mikrodenetleyici</text>
  <text x="100" y="246" text-anchor="middle" font-family="Segoe UI, Tahoma, sans-serif" font-size="12" fill="#55748b">PWM pini</text>

  <path d="M167 159 H195" fill="none" stroke="#6685a0" stroke-width="2.5" stroke-linecap="round"/>
  <polygon points="201,159 192,154 192,164" fill="#6685a0"/>

  <g filter="url(#shadow)">
    <rect x="203" y="72" width="212" height="177" rx="20" fill="url(#pwm)" stroke="#c4b5fd"/>
  </g>
  <text x="221" y="100" font-family="Segoe UI, Tahoma, sans-serif" font-size="12" font-weight="700" fill="#5b4692">PWM SİNYALİ</text>
  <text x="221" y="119" font-family="Segoe UI, Tahoma, sans-serif" font-size="12" fill="#7969a5">Görev döngüsü enerji belirler</text>

  <line x1="221" y1="169" x2="393" y2="169" stroke="#a99bc9" stroke-width="1.5"/>
  <path d="M223 169 V140 H258 V169 H276 V140 H311 V169 H329 V140 H364 V169 H392" fill="none" stroke="#6957a3" stroke-width="4" stroke-linejoin="round"/>
  <path d="M224 202 V181 H267 V202 H279 V181 H322 V202 H334 V181 H377 V202" fill="none" stroke="#9a8ac8" stroke-width="3" stroke-linejoin="round" opacity="0.65"/>
  <text x="221" y="222" font-family="Segoe UI, Tahoma, sans-serif" font-size="12" fill="#625284">%25</text>
  <text x="292" y="222" font-family="Segoe UI, Tahoma, sans-serif" font-size="12" fill="#625284">%50</text>
  <text x="362" y="222" font-family="Segoe UI, Tahoma, sans-serif" font-size="12" fill="#625284">%75</text>
  <path d="M259 130 h44" stroke="#7c68b2" stroke-width="1.5"/>
  <path d="M259 126 v8 M303 126 v8" stroke="#7c68b2" stroke-width="1.5"/>
  <text x="281" y="126" text-anchor="middle" font-family="Segoe UI, Tahoma, sans-serif" font-size="12" fill="#625284">Açık süre</text>

  <path d="M416 130 H447 V103 H468" fill="none" stroke="#6685a0" stroke-width="2.5" stroke-linecap="round" stroke-linejoin="round"/>
  <polygon points="474,103 465,98 465,108" fill="#6685a0"/>
  <path d="M416 191 H447 V218 H468" fill="none" stroke="#6685a0" stroke-width="2.5" stroke-linecap="round" stroke-linejoin="round"/>
  <polygon points="474,218 465,213 465,223" fill="#6685a0"/>

  <g filter="url(#shadow)">
    <rect x="476" y="62" width="130" height="84" rx="18" fill="url(#led)" stroke="#e9c65e"/>
  </g>
  <circle cx="510" cy="96" r="17" fill="#fff9d7" stroke="#e5b940" stroke-width="2" filter="url(#glow)"/>
  <path d="M510 75 v-8 M510 125 v8 M489 96 h-8 M531 96 h8 M495 81 l-6-6 M525 81 l6-6 M495 111 l-6 6 M525 111 l6 6" stroke="#d89d22" stroke-width="2" stroke-linecap="round"/>
  <path d="M504 92 q6-8 12 0 q-1 10-6 13 q-5-3-6-13" fill="#f8cf48"/>
  <text x="552" y="94" font-family="Segoe UI, Tahoma, sans-serif" font-size="12" font-weight="700" fill="#775714">LED</text>
  <text x="552" y="113" font-family="Segoe UI, Tahoma, sans-serif" font-size="12" fill="#8c7131">Parlaklık</text>
  <text x="552" y="130" font-family="Segoe UI, Tahoma, sans-serif" font-size="12" fill="#8c7131">Ortalama ışık</text>

  <g filter="url(#shadow)">
    <rect x="476" y="173" width="130" height="95" rx="18" fill="url(#motor)" stroke="#82ceb6"/>
  </g>
  <rect x="491" y="200" width="24" height="37" rx="6" fill="#f4fffa" stroke="#62ad99" stroke-width="2"/>
  <path d="M487 208 h-7 M487 229 h-7" stroke="#559785" stroke-width="3" stroke-linecap="round"/>
  <circle cx="545" cy="219" r="21" fill="#f5fffb" stroke="#55a990" stroke-width="2"/>
  <circle cx="545" cy="219" r="5" fill="#55a990"/>
  <path d="M545 198 v12 M563 209 l-10 6 M560 233 l-10-7 M530 233 l9-7 M527 209 l10 6" fill="none" stroke="#55a990" stroke-width="3" stroke-linecap="round"/>
  <path d="M516 219 H524" stroke="#559785" stroke-width="3"/>
  <text x="580" y="209" font-family="Segoe UI, Tahoma, sans-serif" font-size="12" font-weight="700" fill="#226957">Motor</text>
  <text x="580" y="228" font-family="Segoe UI, Tahoma, sans-serif" font-size="12" fill="#397c6b">Hız</text>
  <text x="580" y="246" font-family="Segoe UI, Tahoma, sans-serif" font-size="12" fill="#397c6b">Sürücü</text>

  <rect x="214" y="270" width="186" height="28" rx="14" fill="#ffffff" opacity="0.7"/>
  <text x="307" y="289" text-anchor="middle" font-family="Segoe UI, Tahoma, sans-serif" font-size="12" font-weight="700" fill="#537087">Yüksek frekans • Akıcı etki</text>
</svg>