<svg xmlns="http://www.w3.org/2000/svg" width="640" height="320" viewBox="0 0 640 320">
  <defs>
    <linearGradient id="bg" x1="0" y1="0" x2="1" y2="1">
      <stop offset="0%" stop-color="#f5f9ff"/>
      <stop offset="100%" stop-color="#f3f8ef"/>
    </linearGradient>
    <linearGradient id="core" x1="0" y1="0" x2="0" y2="1">
      <stop offset="0%" stop-color="#d9ecff"/>
      <stop offset="100%" stop-color="#b9d9f4"/>
    </linearGradient>
    <linearGradient id="backup" x1="0" y1="0" x2="1" y2="1">
      <stop offset="0%" stop-color="#e5f5d7"/>
      <stop offset="100%" stop-color="#cde8bd"/>
    </linearGradient>
    <filter id="shadow" x="-30%" y="-30%" width="160%" height="170%">
      <feDropShadow dx="0" dy="5" stdDeviation="5" flood-color="#6d8492" flood-opacity="0.18"/>
    </filter>
    <filter id="smallShadow" x="-30%" y="-30%" width="160%" height="170%">
      <feDropShadow dx="0" dy="3" stdDeviation="3" flood-color="#6d8492" flood-opacity="0.14"/>
    </filter>
  </defs>

  <rect width="640" height="320" fill="url(#bg)"/>
  <circle cx="321" cy="159" r="120" fill="#dceffd" opacity="0.34"/>
  <circle cx="321" cy="159" r="92" fill="none" stroke="#b8d6e5" stroke-width="1.5" stroke-dasharray="4 6"/>

  <!-- Bağlantılar -->
  <path d="M199 104 C226 111 235 121 254 133" fill="none" stroke="#8ab3c9" stroke-width="2"/>
  <polygon points="254,133 245,128 248,138" fill="#8ab3c9"/>
  <path d="M199 216 C222 208 238 196 254 185" fill="none" stroke="#8ab3c9" stroke-width="2"/>
  <polygon points="254,185 247,180 252,190" fill="#8ab3c9"/>
  <path d="M389 134 C411 120 425 110 446 105" fill="none" stroke="#8ab3c9" stroke-width="2"/>
  <polygon points="446,105 437,102 441,112" fill="#8ab3c9"/>
  <path d="M389 184 C412 197 426 207 446 215" fill="none" stroke="#78a88a" stroke-width="2"/>
  <polygon points="446,215 438,208 435,218" fill="#78a88a"/>

  <!-- Sol üst: veri -->
  <g filter="url(#smallShadow)">
    <rect x="42" y="62" width="157" height="84" rx="17" fill="#fffdf9"/>
    <rect x="42" y="62" width="157" height="84" rx="17" fill="none" stroke="#d7e5eb"/>
  </g>
  <rect x="61" y="80" width="33" height="33" rx="9" fill="#d5ebfa"/>
  <path d="M69 90 h17 M69 96 h17 M69 102 h11" stroke="#4e8db1" stroke-width="2" stroke-linecap="round"/>
  <text x="106" y="89" font-family="Segoe UI, Tahoma, sans-serif" font-size="12" fill="#365568" font-weight="600">Veri kontrolü</text>
  <text x="106" y="108" font-family="Segoe UI, Tahoma, sans-serif" font-size="12" fill="#6c8290">Mahremiyet</text>
  <circle cx="178" cy="83" r="5" fill="#80bd9c"/>

  <!-- Sol alt: operasyon -->
  <g filter="url(#smallShadow)">
    <rect x="42" y="174" width="157" height="84" rx="17" fill="#fffdf9"/>
    <rect x="42" y="174" width="157" height="84" rx="17" fill="none" stroke="#d7e5eb"/>
  </g>
  <rect x="61" y="192" width="33" height="33" rx="9" fill="#fde6c8"/>
  <path d="M71 211 l6 6 11-14" fill="none" stroke="#bd7c32" stroke-width="2.5" stroke-linecap="round" stroke-linejoin="round"/>
  <text x="106" y="201" font-family="Segoe UI, Tahoma, sans-serif" font-size="12" fill="#365568" font-weight="600">Operasyon yükü</text>
  <text x="106" y="220" font-family="Segoe UI, Tahoma, sans-serif" font-size="12" fill="#6c8290">İzleme ve güncelleme</text>
  <circle cx="178" cy="195" r="5" fill="#e5a45d"/>

  <!-- Merkez sunucu -->
  <g filter="url(#shadow)">
    <rect x="253" y="105" width="136" height="110" rx="23" fill="url(#core)"/>
    <rect x="253" y="105" width="136" height="110" rx="23" fill="none" stroke="#98c3dc" stroke-width="1.2"/>
  </g>
  <rect x="278" y="125" width="86" height="14" rx="6" fill="#f7fcff" opacity="0.9"/>
  <circle cx="291" cy="132" r="3.5" fill="#61ad83"/>
  <path d="M303 132 h45" stroke="#7ca8c1" stroke-width="2" stroke-linecap="round"/>
  <rect x="278" y="147" width="86" height="14" rx="6" fill="#f7fcff" opacity="0.9"/>
  <circle cx="291" cy="154" r="3.5" fill="#61ad83"/>
  <path d="M303 154 h45" stroke="#7ca8c1" stroke-width="2" stroke-linecap="round"/>
  <text x="321" y="184" text-anchor="middle" font-family="Segoe UI, Tahoma, sans-serif" font-size="12" fill="#244d67" font-weight="700">Kendi Sunucun</text>
  <text x="321" y="201" text-anchor="middle" font-family="Segoe UI, Tahoma, sans-serif" font-size="12" fill="#547589">Kontrol ve sorumluluk</text>

  <!-- Sağ üst güvenlik -->
  <g filter="url(#smallShadow)">
    <rect x="446" y="62" width="152" height="84" rx="17" fill="#fffdf9"/>
    <rect x="446" y="62" width="152" height="84" rx="17" fill="none" stroke="#d7e5eb"/>
  </g>
  <path d="M470 83 l14-6 14 6 v12 c0 11-7 18-14 21-7-3-14-10-14-21z" fill="#e2d8f5" stroke="#9279bf" stroke-width="1.3"/>
  <path d="M477 96 l5 5 9-11" fill="none" stroke="#7e63aa" stroke-width="2" stroke-linecap="round" stroke-linejoin="round"/>
  <text x="510" y="89" font-family="Segoe UI, Tahoma, sans-serif" font-size="12" fill="#365568" font-weight="600">Güvenlik</text>
  <text x="510" y="108" font-family="Segoe UI, Tahoma, sans-serif" font-size="12" fill="#6c8290">Yama ve erişim</text>
  <circle cx="577" cy="83" r="5" fill="#a689cf"/>

  <!-- Sağ alt yedek -->
  <g filter="url(#shadow)">
    <rect x="446" y="174" width="152" height="84" rx="17" fill="url(#backup)"/>
    <rect x="446" y="174" width="152" height="84" rx="17" fill="none" stroke="#bbd9ac"/>
  </g>
  <text x="466" y="198" font-family="Segoe UI, Tahoma, sans-serif" font-size="12" fill="#41674d" font-weight="700">Yedekleme</text>
  <text x="466" y="218" font-family="Segoe UI, Tahoma, sans-serif" font-size="12" fill="#65816c">3 kopya · 2 ortam · 1 uzak</text>
  <rect x="467" y="229" width="22" height="12" rx="3" fill="#8bbb7e"/>
  <rect x="495" y="229" width="22" height="12" rx="3" fill="#a8ce99"/>
  <rect x="548" y="226" width="25" height="16" rx="5" fill="#78aa92"/>
  <path d="M520 235 h21" stroke="#6d9d7d" stroke-width="1.8" stroke-dasharray="3 3"/>
  <path d="M541 235 l-5-4 v8z" fill="#6d9d7d"/>

  <!-- Alt karar şeridi -->
  <g filter="url(#smallShadow)">
    <rect x="180" y="276" width="280" height="27" rx="13.5" fill="#ffffff" opacity="0.9"/>
  </g>
  <circle cx="201" cy="289.5" r="5" fill="#6ba9c5"/>
  <text x="215" y="294" font-family="Segoe UI, Tahoma, sans-serif" font-size="12" fill="#486676">Özgürlük</text>
  <path d="M281 290 h33" stroke="#a3bbc6" stroke-width="1.5"/>
  <polygon points="314,290 308,286 308,294" fill="#a3bbc6"/>
  <circle cx="335" cy="289.5" r="5" fill="#db9a55"/>
  <text x="349" y="294" font-family="Segoe UI, Tahoma, sans-serif" font-size="12" fill="#486676">Bilinçli risk yönetimi</text>
</svg>