<svg xmlns="http://www.w3.org/2000/svg" width="640" height="320" viewBox="0 0 640 320">
  <defs>
    <linearGradient id="bg" x1="0" y1="0" x2="1" y2="1">
      <stop offset="0%" stop-color="#f5f9ff"/>
      <stop offset="100%" stop-color="#f2f9ef"/>
    </linearGradient>
    <linearGradient id="contract" x1="0" y1="0" x2="1" y2="1">
      <stop offset="0%" stop-color="#dfe9ff"/>
      <stop offset="100%" stop-color="#cfe2fa"/>
    </linearGradient>
    <linearGradient id="service" x1="0" y1="0" x2="1" y2="1">
      <stop offset="0%" stop-color="#d8f4eb"/>
      <stop offset="100%" stop-color="#c5e8dc"/>
    </linearGradient>
    <filter id="shadow" x="-20%" y="-25%" width="140%" height="160%">
      <feDropShadow dx="0" dy="5" stdDeviation="5" flood-color="#6d8298" flood-opacity="0.18"/>
    </filter>
    <filter id="smallShadow" x="-30%" y="-35%" width="160%" height="180%">
      <feDropShadow dx="0" dy="3" stdDeviation="3" flood-color="#6d8298" flood-opacity="0.16"/>
    </filter>
  </defs>

  <rect width="640" height="320" fill="url(#bg)"/>
  <circle cx="585" cy="44" r="82" fill="#dceefa" opacity="0.45"/>
  <circle cx="72" cy="280" r="78" fill="#ddf3df" opacity="0.48"/>

  <text x="32" y="35" font-family="Segoe UI, Tahoma, sans-serif" font-size="12" font-weight="700" fill="#38506a">Açık/Kapalı Prensibi</text>
  <text x="32" y="53" font-family="Segoe UI, Tahoma, sans-serif" font-size="12" fill="#6d7e90">Değiştirmeden genişlet</text>

  <g filter="url(#shadow)">
    <rect x="43" y="118" width="154" height="88" rx="18" fill="url(#service)" stroke="#a7d5c3"/>
  </g>
  <rect x="60" y="136" width="31" height="31" rx="10" fill="#ffffff" opacity="0.75"/>
  <path d="M69 147h13M69 153h13M69 159h8" stroke="#438875" stroke-width="2" stroke-linecap="round"/>
  <text x="104" y="153" font-family="Segoe UI, Tahoma, sans-serif" font-size="12" font-weight="700" fill="#285b4e">Ödeme Servisi</text>
  <text x="104" y="174" font-family="Segoe UI, Tahoma, sans-serif" font-size="12" fill="#527268">Sabit kalır</text>
  <rect x="61" y="181" width="116" height="10" rx="5" fill="#ffffff" opacity="0.55"/>

  <path d="M197 162 H245" fill="none" stroke="#7090a3" stroke-width="2.2" stroke-linecap="round"/>
  <polygon points="245,162 236,157 236,167" fill="#7090a3"/>
  <text x="203" y="150" font-family="Segoe UI, Tahoma, sans-serif" font-size="12" fill="#6c7f8d">bağımlılık</text>

  <g filter="url(#shadow)">
    <rect x="247" y="102" width="164" height="119" rx="20" fill="url(#contract)" stroke="#aac7e7"/>
  </g>
  <circle cx="329" cy="130" r="20" fill="#ffffff" opacity="0.78"/>
  <path d="M319 130h20M329 120v20" stroke="#527da5" stroke-width="2.2" stroke-linecap="round"/>
  <text x="282" y="164" font-family="Segoe UI, Tahoma, sans-serif" font-size="12" font-weight="700" fill="#305d88">Ödeme Yöntemi</text>
  <text x="282" y="185" font-family="Segoe UI, Tahoma, sans-serif" font-size="12" fill="#577796">Soyut sözleşme</text>
  <rect x="278" y="197" width="102" height="9" rx="4.5" fill="#ffffff" opacity="0.55"/>

  <path d="M411 161 H440 V91 H461" fill="none" stroke="#7794ae" stroke-width="2.2" stroke-linecap="round" stroke-linejoin="round"/>
  <polygon points="461,91 452,86 452,96" fill="#7794ae"/>
  <path d="M411 161 H461" fill="none" stroke="#7794ae" stroke-width="2.2" stroke-linecap="round"/>
  <polygon points="461,161 452,156 452,166" fill="#7794ae"/>
  <path d="M411 161 H440 V231 H461" fill="none" stroke="#7794ae" stroke-width="2.2" stroke-linecap="round" stroke-linejoin="round"/>
  <polygon points="461,231 452,226 452,236" fill="#7794ae"/>

  <g filter="url(#smallShadow)">
    <rect x="464" y="57" width="139" height="67" rx="15" fill="#fff1d9" stroke="#efd19b"/>
  </g>
  <circle cx="486" cy="81" r="12" fill="#ffffff" opacity="0.82"/>
  <rect x="480" y="75" width="12" height="9" rx="2" fill="none" stroke="#bd7d29" stroke-width="1.7"/>
  <path d="M483 75v-3h6v3" fill="none" stroke="#bd7d29" stroke-width="1.7" stroke-linecap="round"/>
  <text x="506" y="83" font-family="Segoe UI, Tahoma, sans-serif" font-size="12" font-weight="700" fill="#80521d">Kart</text>
  <text x="480" y="106" font-family="Segoe UI, Tahoma, sans-serif" font-size="12" fill="#9a713e">Mevcut tür</text>

  <g filter="url(#smallShadow)">
    <rect x="464" y="128" width="139" height="67" rx="15" fill="#f1e6fb" stroke="#d7bde9"/>
  </g>
  <circle cx="486" cy="152" r="12" fill="#ffffff" opacity="0.82"/>
  <path d="M478 154h16M481 149h10M482 158h8" stroke="#8a5aa7" stroke-width="1.7" stroke-linecap="round"/>
  <text x="506" y="154" font-family="Segoe UI, Tahoma, sans-serif" font-size="12" font-weight="700" fill="#68417f">Havale</text>
  <text x="480" y="177" font-family="Segoe UI, Tahoma, sans-serif" font-size="12" fill="#896b9b">Mevcut tür</text>

  <g filter="url(#smallShadow)">
    <rect x="464" y="199" width="139" height="67" rx="15" fill="#dff3f1" stroke="#abd9d4"/>
  </g>
  <circle cx="486" cy="223" r="12" fill="#ffffff" opacity="0.82"/>
  <path d="M481 219h10v10h-10zM484 222h4M484 226h4" fill="none" stroke="#39837d" stroke-width="1.6" stroke-linejoin="round"/>
  <text x="506" y="225" font-family="Segoe UI, Tahoma, sans-serif" font-size="12" font-weight="700" fill="#286762">Dijital Cüzdan</text>
  <text x="480" y="248" font-family="Segoe UI, Tahoma, sans-serif" font-size="12" fill="#548983">Yeni tür eklenir</text>

  <path d="M534 278 V267" fill="none" stroke="#46a17e" stroke-width="2" stroke-linecap="round"/>
  <polygon points="534,267 529,275 539,275" fill="#46a17e"/>
  <rect x="440" y="279" width="164" height="25" rx="12.5" fill="#e2f5e9" stroke="#b8dfc5"/>
  <path d="M456 290l4 4 8-9" fill="none" stroke="#39966d" stroke-width="2" stroke-linecap="round" stroke-linejoin="round"/>
  <text x="474" y="295" font-family="Segoe UI, Tahoma, sans-serif" font-size="12" font-weight="700" fill="#347359">Genişletilebilir yapı</text>

  <path d="M74 245h272" fill="none" stroke="#c7d7df" stroke-width="1.2" stroke-dasharray="4 5"/>
  <text x="73" y="267" font-family="Segoe UI, Tahoma, sans-serif" font-size="12" fill="#637b88">Yeni davranış: sınıf ekle</text>
  <text x="73" y="288" font-family="Segoe UI, Tahoma, sans-serif" font-size="12" fill="#4e8b70" font-weight="700">Eski kod: dokunma</text>
</svg>