<svg xmlns="http://www.w3.org/2000/svg" width="640" height="320" viewBox="0 0 640 320">
  <defs>
    <linearGradient id="bg" x1="0" y1="0" x2="1" y2="1">
      <stop offset="0%" stop-color="#f5f9ff"/>
      <stop offset="100%" stop-color="#f3f8ef"/>
    </linearGradient>
    <linearGradient id="debt" x1="0" y1="0" x2="1" y2="1">
      <stop offset="0%" stop-color="#ffd9cb"/>
      <stop offset="100%" stop-color="#ffc4b8"/>
    </linearGradient>
    <linearGradient id="moral" x1="0" y1="0" x2="1" y2="1">
      <stop offset="0%" stop-color="#d8f5e8"/>
      <stop offset="100%" stop-color="#bde9d5"/>
    </linearGradient>
    <filter id="shadow" x="-20%" y="-20%" width="140%" height="150%">
      <feDropShadow dx="0" dy="5" stdDeviation="6" flood-color="#7790a0" flood-opacity="0.20"/>
    </filter>
    <filter id="softShadow" x="-20%" y="-20%" width="140%" height="150%">
      <feDropShadow dx="0" dy="3" stdDeviation="4" flood-color="#7790a0" flood-opacity="0.15"/>
    </filter>
  </defs>

  <rect width="640" height="320" fill="url(#bg)"/>
  <circle cx="322" cy="160" r="118" fill="#dcecf0" opacity="0.34"/>
  <circle cx="322" cy="160" r="88" fill="none" stroke="#b8d0d8" stroke-width="2" stroke-dasharray="5 7" opacity="0.7"/>

  <g filter="url(#shadow)">
    <rect x="32" y="112" width="132" height="96" rx="19" fill="url(#debt)"/>
    <rect x="42" y="123" width="112" height="22" rx="11" fill="#fff4ee" opacity="0.78"/>
    <text x="98" y="139" text-anchor="middle" font-family="Segoe UI, Tahoma, sans-serif" font-size="12" fill="#8b4e45" font-weight="600">Teknoloji borcu</text>
    <path d="M63 162 h15 l7 -13 l10 29 l9 -17 h20" fill="none" stroke="#cc7467" stroke-width="3" stroke-linecap="round" stroke-linejoin="round"/>
    <text x="98" y="194" text-anchor="middle" font-family="Segoe UI, Tahoma, sans-serif" font-size="12" fill="#8b4e45">Ertelenen düzenleme</text>
  </g>

  <g filter="url(#softShadow)">
    <rect x="250" y="41" width="144" height="58" rx="17" fill="#dce9ff"/>
    <circle cx="276" cy="70" r="13" fill="#f8fbff"/>
    <path d="M270 70 h12 M276 64 v12" stroke="#6085c4" stroke-width="2.5" stroke-linecap="round"/>
    <text x="331" y="67" text-anchor="middle" font-family="Segoe UI, Tahoma, sans-serif" font-size="12" fill="#496da9" font-weight="600">Değişiklik maliyeti</text>
    <text x="331" y="84" text-anchor="middle" font-family="Segoe UI, Tahoma, sans-serif" font-size="12" fill="#496da9">Faiz büyür</text>
  </g>

  <g filter="url(#softShadow)">
    <rect x="431" y="114" width="166" height="92" rx="19" fill="#fff0c9"/>
    <circle cx="464" cy="148" r="16" fill="#fff9e9"/>
    <path d="M456 154 c4 -15 12 -15 16 0 M458 143 h12" fill="none" stroke="#b48736" stroke-width="2.5" stroke-linecap="round"/>
    <text x="522" y="144" text-anchor="middle" font-family="Segoe UI, Tahoma, sans-serif" font-size="12" fill="#916b29" font-weight="600">Teslimat baskısı</text>
    <text x="522" y="164" text-anchor="middle" font-family="Segoe UI, Tahoma, sans-serif" font-size="12" fill="#916b29">Kestirme çözüm</text>
    <rect x="454" y="178" width="120" height="8" rx="4" fill="#e7c36c" opacity="0.55"/>
    <rect x="454" y="178" width="74" height="8" rx="4" fill="#d9a941"/>
  </g>

  <g filter="url(#softShadow)">
    <rect x="247" y="220" width="151" height="61" rx="18" fill="url(#moral)"/>
    <circle cx="275" cy="250" r="14" fill="#f6fffa"/>
    <path d="M268 249 q7 -8 14 0 M270 256 q5 4 10 0" fill="none" stroke="#4b9c78" stroke-width="2.2" stroke-linecap="round"/>
    <text x="334" y="247" text-anchor="middle" font-family="Segoe UI, Tahoma, sans-serif" font-size="12" fill="#35775b" font-weight="600">Ekip morali</text>
    <text x="334" y="266" text-anchor="middle" font-family="Segoe UI, Tahoma, sans-serif" font-size="12" fill="#35775b">Güven azalır</text>
  </g>

  <path d="M164 142 C195 108 217 82 247 73" fill="none" stroke="#8aa5b2" stroke-width="2.5" stroke-linecap="round"/>
  <polygon points="244,67 254,71 247,78" fill="#8aa5b2"/>

  <path d="M395 77 C422 85 442 103 463 115" fill="none" stroke="#8aa5b2" stroke-width="2.5" stroke-linecap="round"/>
  <polygon points="458,107 469,117 455,118" fill="#8aa5b2"/>

  <path d="M513 207 C481 228 444 245 399 249" fill="none" stroke="#8aa5b2" stroke-width="2.5" stroke-linecap="round"/>
  <polygon points="403,243 392,250 404,256" fill="#8aa5b2"/>

  <path d="M248 249 C208 238 173 218 140 207" fill="none" stroke="#8aa5b2" stroke-width="2.5" stroke-linecap="round"/>
  <polygon points="146,201 133,205 143,213" fill="#8aa5b2"/>

  <g filter="url(#softShadow)">
    <rect x="177" y="132" width="145" height="57" rx="17" fill="#ffffff" opacity="0.92"/>
    <text x="249" y="154" text-anchor="middle" font-family="Segoe UI, Tahoma, sans-serif" font-size="12" fill="#526876" font-weight="600">Karmaşık kod</text>
    <text x="249" y="173" text-anchor="middle" font-family="Segoe UI, Tahoma, sans-serif" font-size="12" fill="#718591">Analiz ve hata ayıklama</text>
  </g>

  <path d="M173 160 H167" stroke="#cc7467" stroke-width="3" stroke-linecap="round"/>
  <circle cx="177" cy="160" r="4" fill="#cc7467"/>

  <g filter="url(#softShadow)">
    <rect x="427" y="232" width="171" height="45" rx="15" fill="#e4effd"/>
    <path d="M448 255 l6 6 l12 -14" fill="none" stroke="#5481bd" stroke-width="2.6" stroke-linecap="round" stroke-linejoin="round"/>
    <text x="529" y="259" text-anchor="middle" font-family="Segoe UI, Tahoma, sans-serif" font-size="12" fill="#426c9f" font-weight="600">Küçük iyileştirmeler</text>
  </g>

  <path d="M431 245 C414 228 400 213 385 193" fill="none" stroke="#71a88e" stroke-width="2.3" stroke-linecap="round" stroke-dasharray="4 5"/>
  <polygon points="389,198 380,187 393,191" fill="#71a88e"/>

  <text x="320" y="307" text-anchor="middle" font-family="Segoe UI, Tahoma, sans-serif" font-size="12" fill="#68808a">Görünür borç • planlı bakım • sürdürülebilir ekip</text>
</svg>