<svg xmlns="http://www.w3.org/2000/svg" width="640" height="320" viewBox="0 0 640 320">
  <defs>
    <linearGradient id="bg" x1="0" y1="0" x2="1" y2="1">
      <stop offset="0%" stop-color="#f5f9ff"/>
      <stop offset="100%" stop-color="#f3f8ef"/>
    </linearGradient>
    <linearGradient id="source" x1="0" y1="0" x2="1" y2="1">
      <stop offset="0%" stop-color="#b9d7ff"/>
      <stop offset="100%" stop-color="#d7c9ff"/>
    </linearGradient>
    <linearGradient id="target" x1="0" y1="0" x2="1" y2="1">
      <stop offset="0%" stop-color="#c8f0dc"/>
      <stop offset="100%" stop-color="#bde6f2"/>
    </linearGradient>
    <filter id="shadow" x="-20%" y="-25%" width="140%" height="160%">
      <feDropShadow dx="0" dy="5" stdDeviation="5" flood-color="#66809a" flood-opacity="0.18"/>
    </filter>
    <filter id="softShadow" x="-20%" y="-25%" width="140%" height="160%">
      <feDropShadow dx="0" dy="3" stdDeviation="3" flood-color="#66809a" flood-opacity="0.14"/>
    </filter>
  </defs>

  <rect width="640" height="320" fill="url(#bg)"/>
  <circle cx="65" cy="45" r="72" fill="#d7edff" opacity="0.42"/>
  <circle cx="592" cy="275" r="82" fill="#dff2cf" opacity="0.42"/>

  <text x="32" y="31" font-family="Segoe UI, Tahoma, sans-serif" font-size="12" font-weight="700" fill="#38506a">TRANSFER ÖĞRENME</text>
  <text x="32" y="48" font-family="Segoe UI, Tahoma, sans-serif" font-size="12" fill="#718398">Bilgiyi yeni göreve taşı</text>

  <g filter="url(#shadow)">
    <rect x="32" y="76" width="150" height="160" rx="18" fill="#ffffff"/>
  </g>
  <rect x="48" y="94" width="118" height="43" rx="11" fill="url(#source)"/>
  <circle cx="69" cy="115" r="10" fill="#ffffff" opacity="0.85"/>
  <path d="M64 116 L68 111 L73 116 L77 112" fill="none" stroke="#6276aa" stroke-width="2" stroke-linecap="round" stroke-linejoin="round"/>
  <text x="88" y="112" font-family="Segoe UI, Tahoma, sans-serif" font-size="12" font-weight="700" fill="#425272">Kaynak görev</text>
  <text x="88" y="127" font-family="Segoe UI, Tahoma, sans-serif" font-size="12" fill="#596b88">Büyük veri</text>

  <text x="52" y="160" font-family="Segoe UI, Tahoma, sans-serif" font-size="12" fill="#52647a">Ön eğitimli model</text>
  <g filter="url(#softShadow)">
    <rect x="52" y="173" width="25" height="39" rx="6" fill="#9fc8f3"/>
    <rect x="80" y="173" width="25" height="39" rx="6" fill="#a9d9dc"/>
    <rect x="108" y="173" width="25" height="39" rx="6" fill="#c2b8ed"/>
    <rect x="136" y="173" width="25" height="39" rx="6" fill="#e3b5d1"/>
  </g>
  <text x="54" y="226" font-family="Segoe UI, Tahoma, sans-serif" font-size="12" fill="#718398">Örüntüler</text>

  <path d="M190 156 C210 156 212 156 232 156" fill="none" stroke="#7891ae" stroke-width="2.5" stroke-linecap="round"/>
  <polygon points="232,156 222,150 222,162" fill="#7891ae"/>
  <text x="191" y="143" font-family="Segoe UI, Tahoma, sans-serif" font-size="12" fill="#61768c">Parametreler</text>

  <g filter="url(#shadow)">
    <rect x="241" y="65" width="165" height="181" rx="20" fill="#ffffff"/>
  </g>
  <text x="267" y="92" font-family="Segoe UI, Tahoma, sans-serif" font-size="12" font-weight="700" fill="#3c566e">Uyarlama katmanları</text>

  <rect x="266" y="107" width="36" height="83" rx="9" fill="#b5d9f7"/>
  <rect x="306" y="107" width="36" height="83" rx="9" fill="#a9ddd0"/>
  <rect x="346" y="107" width="36" height="83" rx="9" fill="#f0c4dc"/>
  <path d="M278 148 L289 148 M318 148 L330 148 M358 148 L370 148" stroke="#ffffff" stroke-width="3" stroke-linecap="round"/>
  <text x="266" y="211" font-family="Segoe UI, Tahoma, sans-serif" font-size="12" fill="#52708a">Genel özellikler</text>
  <text x="265" y="229" font-family="Segoe UI, Tahoma, sans-serif" font-size="12" fill="#718398">Dondur veya güncelle</text>

  <path d="M414 156 C432 156 434 156 452 156" fill="none" stroke="#7891ae" stroke-width="2.5" stroke-linecap="round"/>
  <polygon points="452,156 442,150 442,162" fill="#7891ae"/>

  <g filter="url(#shadow)">
    <rect x="462" y="76" width="146" height="160" rx="18" fill="#ffffff"/>
  </g>
  <rect x="478" y="94" width="114" height="43" rx="11" fill="url(#target)"/>
  <circle cx="499" cy="115" r="10" fill="#ffffff" opacity="0.88"/>
  <path d="M494 118 C497 111 501 111 504 118 M496 113 C498 109 501 109 503 113" fill="none" stroke="#4e8b78" stroke-width="1.8" stroke-linecap="round"/>
  <text x="517" y="112" font-family="Segoe UI, Tahoma, sans-serif" font-size="12" font-weight="700" fill="#3f6460">Hedef görev</text>
  <text x="517" y="127" font-family="Segoe UI, Tahoma, sans-serif" font-size="12" fill="#577a76">Az etiketli veri</text>

  <rect x="480" y="158" width="48" height="43" rx="8" fill="#a9ddd0"/>
  <rect x="533" y="158" width="43" height="43" rx="8" fill="#f4bad5"/>
  <path d="M528 179 L533 179" stroke="#708a8a" stroke-width="2"/>
  <text x="482" y="220" font-family="Segoe UI, Tahoma, sans-serif" font-size="12" fill="#526f6a">Yeni başlık</text>

  <g filter="url(#softShadow)">
    <rect x="58" y="262" width="160" height="38" rx="13" fill="#e7f3ff"/>
    <rect x="240" y="262" width="160" height="38" rx="13" fill="#e7f7ee"/>
    <rect x="422" y="262" width="160" height="38" rx="13" fill="#f9eaf2"/>
  </g>
  <circle cx="78" cy="281" r="7" fill="#6ca8d9"/>
  <text x="92" y="285" font-family="Segoe UI, Tahoma, sans-serif" font-size="12" font-weight="700" fill="#496b87">Özellik çıkarımı</text>
  <circle cx="260" cy="281" r="7" fill="#62ad8a"/>
  <text x="274" y="285" font-family="Segoe UI, Tahoma, sans-serif" font-size="12" font-weight="700" fill="#487664">İnce ayar</text>
  <circle cx="442" cy="281" r="7" fill="#d578a9"/>
  <text x="456" y="285" font-family="Segoe UI, Tahoma, sans-serif" font-size="12" font-weight="700" fill="#88526d">Doğrulama</text>
</svg>